<svg width="72" height="67" viewBox="0 0 72 67" fill="none" xmlns="http://www.w3.org/2000/svg">
<g filter="url(#filter0_dd_2_29650)">
<path d="M25.9093 52.4314L25.4904 51.6185H24.576H5.777C3.42826 51.6185 1.5 49.6909 1.5 47.3415V10.4825C1.5 8.13431 3.42809 6.20654 5.777 6.20654H58.224C60.5726 6.20654 62.5 8.13397 62.5 10.4825V47.3425C62.5 49.6923 60.5724 51.6195 58.224 51.6195H39.651H38.7132L38.3025 52.4627L33.3185 62.6946C33.2928 62.7107 33.2468 62.7356 33.1721 62.7647C32.9563 62.8491 32.6362 62.911 32.2704 62.9131C31.9049 62.9151 31.5817 62.8569 31.361 62.774C31.2767 62.7423 31.227 62.7152 31.201 62.6988L25.9093 52.4314ZM33.3458 62.6753C33.3458 62.6753 33.3451 62.676 33.3435 62.6773C33.345 62.6759 33.3458 62.6753 33.3458 62.6753Z" fill="#F7F9FC" stroke="#DB2C66" stroke-width="3"/>
<path fill-rule="evenodd" clip-rule="evenodd" d="M30.6666 17.7065C30.6666 16.9692 31.264 16.3732 32 16.3732C32.736 16.3732 33.3333 16.9692 33.3333 17.7065V20.3732C33.3333 21.1105 32.736 21.7065 32 21.7065C31.264 21.7065 30.6666 21.1105 30.6666 20.3732V17.7065ZM41.3333 28.3732H44C44.736 28.3732 45.3333 28.9692 45.3333 29.7065C45.3333 30.4438 44.736 31.0398 44 31.0398H41.3333C40.5973 31.0398 40 30.4438 40 29.7065C40 28.9692 40.5973 28.3732 41.3333 28.3732ZM24 29.7065C24 28.9692 23.4026 28.3732 22.6666 28.3732H20C19.264 28.3732 18.6666 28.9692 18.6666 29.7065C18.6666 30.4438 19.264 31.0398 20 31.0398H22.6666C23.4026 31.0398 24 30.4438 24 29.7065ZM22.4089 20.4442C22.9222 19.9162 23.7649 19.8989 24.2942 20.4109L26.2129 22.2642C26.7422 22.7749 26.7569 23.6202 26.2449 24.1496C25.9836 24.4202 25.6356 24.5562 25.2862 24.5562C24.9529 24.5562 24.6196 24.4336 24.3596 24.1829L22.4409 22.3296C21.9116 21.8189 21.8969 20.9736 22.4089 20.4442ZM38.7136 24.5568C39.0469 24.5568 39.3802 24.4328 39.6402 24.1834L41.5589 22.3301C42.0882 21.8181 42.1029 20.9728 41.5909 20.4448C41.0802 19.9168 40.2376 19.8994 39.7056 20.4114L37.7869 22.2634C37.2576 22.7754 37.2429 23.6208 37.7549 24.1488C38.0162 24.4194 38.3642 24.5568 38.7136 24.5568ZM30.6666 39.0398C30.6666 38.3025 31.264 37.7065 32 37.7065C32.736 37.7065 33.3333 38.3025 33.3333 39.0398V41.7065C33.3333 42.4438 32.736 43.0398 32 43.0398C31.264 43.0398 30.6666 42.4438 30.6666 41.7065V39.0398ZM39.64 35.23C39.1106 34.7193 38.2666 34.7353 37.7546 35.2633C37.2426 35.7926 37.2573 36.638 37.7866 37.1486L39.7053 39.002C39.9653 39.2526 40.2986 39.3753 40.632 39.3753C40.9813 39.3753 41.3293 39.2393 41.5906 38.9686C42.1026 38.4393 42.088 37.594 41.5586 37.0833L39.64 35.23ZM22.4413 37.0833L24.36 35.23C24.8906 34.7193 25.7346 34.7353 26.2453 35.2633C26.7573 35.7926 26.7426 36.638 26.2133 37.1486L24.2946 39.002C24.0346 39.2526 23.7013 39.3753 23.368 39.3753C23.0186 39.3753 22.6706 39.2393 22.4093 38.9686C21.8973 38.4393 21.912 37.594 22.4413 37.0833Z" fill="#DB2C66"/>
</g>
<defs>
<filter id="filter0_dd_2_29650" x="-8" y="-1.29346" width="80" height="80" filterUnits="userSpaceOnUse" color-interpolation-filters="sRGB">
<feFlood flood-opacity="0" result="BackgroundImageFix"/>
<feColorMatrix in="SourceAlpha" type="matrix" values="0 0 0 0 0 0 0 0 0 0 0 0 0 0 0 0 0 0 127 0" result="hardAlpha"/>
<feOffset dy="4"/>
<feGaussianBlur stdDeviation="4"/>
<feColorMatrix type="matrix" values="0 0 0 0 0.0352941 0 0 0 0 0.117647 0 0 0 0 0.258824 0 0 0 0.25 0"/>
<feBlend mode="normal" in2="BackgroundImageFix" result="effect1_dropShadow_2_29650"/>
<feColorMatrix in="SourceAlpha" type="matrix" values="0 0 0 0 0 0 0 0 0 0 0 0 0 0 0 0 0 0 127 0" result="hardAlpha"/>
<feOffset/>
<feGaussianBlur stdDeviation="0.5"/>
<feColorMatrix type="matrix" values="0 0 0 0 0.0352941 0 0 0 0 0.117647 0 0 0 0 0.258824 0 0 0 0.31 0"/>
<feBlend mode="normal" in2="effect1_dropShadow_2_29650" result="effect2_dropShadow_2_29650"/>
<feBlend mode="normal" in="SourceGraphic" in2="effect2_dropShadow_2_29650" result="shape"/>
</filter>
</defs>
</svg>
