<svg width="72" height="67" viewBox="0 0 72 67" fill="none" xmlns="http://www.w3.org/2000/svg">
<g filter="url(#filter0_dd_2_29654)">
<path d="M25.9093 52.4314L25.4904 51.6185H24.576H5.777C3.42826 51.6185 1.5 49.6909 1.5 47.3415V10.4825C1.5 8.13431 3.42809 6.20654 5.777 6.20654H58.224C60.5726 6.20654 62.5 8.13397 62.5 10.4825V47.3425C62.5 49.6923 60.5724 51.6195 58.224 51.6195H39.651H38.7132L38.3025 52.4627L33.3185 62.6946C33.2928 62.7107 33.2468 62.7356 33.1721 62.7647C32.9563 62.8491 32.6362 62.911 32.2704 62.9131C31.9049 62.9151 31.5817 62.8569 31.361 62.774C31.2767 62.7423 31.227 62.7152 31.201 62.6988L25.9093 52.4314ZM33.3458 62.6753C33.3458 62.6753 33.3451 62.676 33.3435 62.6773C33.345 62.6759 33.3458 62.6753 33.3458 62.6753Z" fill="#F7F9FC" stroke="#DB2C66" stroke-width="3"/>
<path fill-rule="evenodd" clip-rule="evenodd" d="M33.3333 31.0398C33.3333 31.7758 32.736 32.3732 32 32.3732C31.264 32.3732 30.6667 31.7758 30.6667 31.0398V25.7065C30.6667 24.9705 31.264 24.3732 32 24.3732C32.736 24.3732 33.3333 24.9705 33.3333 25.7065V31.0398ZM32 36.3732C31.264 36.3732 30.6667 35.7758 30.6667 35.0398C30.6667 34.3038 31.264 33.7065 32 33.7065C32.736 33.7065 33.3333 34.3038 33.3333 35.0398C33.3333 35.7758 32.736 36.3732 32 36.3732ZM46.0813 35.4438L35.852 18.4852C35.0533 17.1625 33.6133 16.3732 32 16.3732C30.3867 16.3732 28.9467 17.1625 28.148 18.4852L17.9187 35.4438C17.1613 36.7012 17.1387 38.2132 17.8587 39.4878C18.6307 40.8572 20.1307 41.7065 21.7707 41.7065H42.2293C43.8693 41.7065 45.3693 40.8572 46.1413 39.4878C46.8613 38.2132 46.8387 36.7012 46.0813 35.4438Z" fill="#DB2C66"/>
</g>
<defs>
<filter id="filter0_dd_2_29654" x="-8" y="-1.29346" width="80" height="80" filterUnits="userSpaceOnUse" color-interpolation-filters="sRGB">
<feFlood flood-opacity="0" result="BackgroundImageFix"/>
<feColorMatrix in="SourceAlpha" type="matrix" values="0 0 0 0 0 0 0 0 0 0 0 0 0 0 0 0 0 0 127 0" result="hardAlpha"/>
<feOffset dy="4"/>
<feGaussianBlur stdDeviation="4"/>
<feColorMatrix type="matrix" values="0 0 0 0 0.0352941 0 0 0 0 0.117647 0 0 0 0 0.258824 0 0 0 0.25 0"/>
<feBlend mode="normal" in2="BackgroundImageFix" result="effect1_dropShadow_2_29654"/>
<feColorMatrix in="SourceAlpha" type="matrix" values="0 0 0 0 0 0 0 0 0 0 0 0 0 0 0 0 0 0 127 0" result="hardAlpha"/>
<feOffset/>
<feGaussianBlur stdDeviation="0.5"/>
<feColorMatrix type="matrix" values="0 0 0 0 0.0352941 0 0 0 0 0.117647 0 0 0 0 0.258824 0 0 0 0.31 0"/>
<feBlend mode="normal" in2="effect1_dropShadow_2_29654" result="effect2_dropShadow_2_29654"/>
<feBlend mode="normal" in="SourceGraphic" in2="effect2_dropShadow_2_29654" result="shape"/>
</filter>
</defs>
</svg>
