<svg width="14" height="18" viewBox="0 0 14 18" fill="none" xmlns="http://www.w3.org/2000/svg">
<path d="M12.0626 4.50004H8.12508V0.562505C8.12508 0.251721 7.87336 0 7.56257 0H6.43756C6.12678 0 5.87505 0.251721 5.87505 0.562505V4.50004H1.93752C1.00552 4.50004 0.25 5.25556 0.25 6.18756C0.25 7.11956 1.00552 7.87508 1.93752 7.87508C2.67123 7.87508 3.28929 7.40398 3.52167 6.75007H10.4785C10.7108 7.40398 11.3289 7.87508 12.0626 7.87508C12.9946 7.87508 13.7501 7.11956 13.7501 6.18756C13.7501 5.25556 12.9946 4.50004 12.0626 4.50004ZM4.75004 15.0766L6.53213 17.7495C6.75467 18.0835 7.24546 18.0835 7.46835 17.7495L9.25009 15.0766V7.87508H4.75004V15.0766Z" fill="#2E3A59"/>
</svg>
