<svg width="18" height="15" viewBox="0 0 18 15" fill="none" xmlns="http://www.w3.org/2000/svg">
<path d="M9 0.25C4.02938 0.25 0 4.27938 0 9.25C0 10.9 0.445313 12.4456 1.22063 13.775C1.39594 14.0756 1.73 14.25 2.07812 14.25H15.9219C16.27 14.25 16.6041 14.0756 16.7794 13.775C17.5547 12.4456 18 10.9 18 9.25C18 4.27938 13.9706 0.25 9 0.25ZM14.1 5.70031L10.7078 10.2231C10.8894 10.5241 11 10.8728 11 11.25C11 11.6163 10.8944 11.9547 10.7225 12.25H7.2775C7.10563 11.9547 7 11.6163 7 11.25C7 10.1453 7.89531 9.25 9 9.25C9.17656 9.25 9.34437 9.28 9.5075 9.32312L12.9 4.79969C13.1494 4.46969 13.6188 4.40219 13.9503 4.64969C14.2812 4.89844 14.3488 5.36875 14.1 5.70031Z" fill="#2E3A59"/>
</svg>
