<svg width="25" height="25" viewBox="0 0 25 25" fill="none" xmlns="http://www.w3.org/2000/svg">
<path fill-rule="evenodd" clip-rule="evenodd" d="M23.2917 10.9584H14.0417V1.70835C14.0417 0.855812 13.351 0.166687 12.5 0.166687C11.649 0.166687 10.9584 0.855812 10.9584 1.70835V10.9584H1.70835C0.857354 10.9584 0.166687 11.6475 0.166687 12.5C0.166687 13.3526 0.857354 14.0417 1.70835 14.0417H10.9584V23.2917C10.9584 24.1442 11.649 24.8334 12.5 24.8334C13.351 24.8334 14.0417 24.1442 14.0417 23.2917V14.0417H23.2917C24.1427 14.0417 24.8334 13.3526 24.8334 12.5C24.8334 11.6475 24.1427 10.9584 23.2917 10.9584Z" fill="white"/>
</svg>
