<svg width="34" height="34" viewBox="0 0 34 34" fill="none" xmlns="http://www.w3.org/2000/svg">
<path fill-rule="evenodd" clip-rule="evenodd" d="M21.9999 18.6667H18.6666V22C18.6666 22.9167 17.9166 23.6667 16.9999 23.6667C16.0833 23.6667 15.3333 22.9167 15.3333 22V18.6667H11.9999C11.0833 18.6667 10.3333 17.9167 10.3333 17C10.3333 16.0834 11.0833 15.3334 11.9999 15.3334H15.3333V12C15.3333 11.0834 16.0833 10.3334 16.9999 10.3334C17.9166 10.3334 18.6666 11.0834 18.6666 12V15.3334H21.9999C22.9166 15.3334 23.6666 16.0834 23.6666 17C23.6666 17.9167 22.9166 18.6667 21.9999 18.6667ZM16.9999 0.333374C7.80992 0.333374 0.333252 7.81004 0.333252 17C0.333252 26.19 7.80992 33.6667 16.9999 33.6667C26.1899 33.6667 33.6666 26.19 33.6666 17C33.6666 7.81004 26.1899 0.333374 16.9999 0.333374Z" fill="#FF3D71"/>
</svg>
