<svg width="72" height="67" viewBox="0 0 72 67" fill="none" xmlns="http://www.w3.org/2000/svg">
<g filter="url(#filter0_dd_2_29658)">
<path d="M25.9093 52.4314L25.4904 51.6185H24.576H5.777C3.42826 51.6185 1.5 49.6909 1.5 47.3415V10.4825C1.5 8.13431 3.42809 6.20654 5.777 6.20654H58.224C60.5726 6.20654 62.5 8.13397 62.5 10.4825V47.3425C62.5 49.6923 60.5724 51.6195 58.224 51.6195H39.651H38.7132L38.3025 52.4627L33.3185 62.6946C33.2928 62.7107 33.2468 62.7356 33.1721 62.7647C32.9563 62.8491 32.6362 62.911 32.2704 62.9131C31.9049 62.9151 31.5817 62.8569 31.361 62.774C31.2767 62.7423 31.227 62.7152 31.201 62.6988L25.9093 52.4314ZM33.3458 62.6753C33.3458 62.6753 33.3451 62.676 33.3435 62.6773C33.345 62.6759 33.3458 62.6753 33.3458 62.6753Z" fill="#F7F9FC" stroke="#DB2C66" stroke-width="3"/>
<path fill-rule="evenodd" clip-rule="evenodd" d="M22.6667 28.3732C22.6667 23.9612 26.2547 20.3732 30.6667 20.3732C35.0787 20.3732 38.6667 23.9612 38.6667 28.3732C38.6667 32.7852 35.0787 36.3732 30.6667 36.3732C26.2547 36.3732 22.6667 32.7852 22.6667 28.3732ZM43.6093 39.4305L39.0827 34.9025C40.4867 33.0972 41.3333 30.8345 41.3333 28.3732C41.3333 22.4919 36.548 17.7065 30.6667 17.7065C24.7853 17.7065 20 22.4919 20 28.3732C20 34.2545 24.7853 39.0399 30.6667 39.0399C33.128 39.0399 35.3907 38.1932 37.196 36.7892L41.724 41.3159C41.984 41.5759 42.3253 41.7065 42.6667 41.7065C43.008 41.7065 43.3493 41.5759 43.6093 41.3159C44.1307 40.7945 44.1307 39.9519 43.6093 39.4305Z" fill="#DB2C66"/>
</g>
<defs>
<filter id="filter0_dd_2_29658" x="-8" y="-1.29346" width="80" height="80" filterUnits="userSpaceOnUse" color-interpolation-filters="sRGB">
<feFlood flood-opacity="0" result="BackgroundImageFix"/>
<feColorMatrix in="SourceAlpha" type="matrix" values="0 0 0 0 0 0 0 0 0 0 0 0 0 0 0 0 0 0 127 0" result="hardAlpha"/>
<feOffset dy="4"/>
<feGaussianBlur stdDeviation="4"/>
<feColorMatrix type="matrix" values="0 0 0 0 0.0352941 0 0 0 0 0.117647 0 0 0 0 0.258824 0 0 0 0.25 0"/>
<feBlend mode="normal" in2="BackgroundImageFix" result="effect1_dropShadow_2_29658"/>
<feColorMatrix in="SourceAlpha" type="matrix" values="0 0 0 0 0 0 0 0 0 0 0 0 0 0 0 0 0 0 127 0" result="hardAlpha"/>
<feOffset/>
<feGaussianBlur stdDeviation="0.5"/>
<feColorMatrix type="matrix" values="0 0 0 0 0.0352941 0 0 0 0 0.117647 0 0 0 0 0.258824 0 0 0 0.31 0"/>
<feBlend mode="normal" in2="effect1_dropShadow_2_29658" result="effect2_dropShadow_2_29658"/>
<feBlend mode="normal" in="SourceGraphic" in2="effect2_dropShadow_2_29658" result="shape"/>
</filter>
</defs>
</svg>
